<mxfile host="app.diagrams.net" modified="2022-03-23T16:38:43.921Z" agent="5.0 (Windows NT 10.0; WOW64) AppleWebKit/537.36 (KHTML, like Gecko) Chrome/99.0.4844.82 Safari/537.36" etag="34y1wN6y5ksB441hf1r_" version="16.5.2" type="github">
  <diagram id="wu3s9VQ9t52bFEnNtLgB" name="Page-1">
    <mxGraphModel dx="2076" dy="1094" grid="1" gridSize="10" guides="1" tooltips="1" connect="1" arrows="1" fold="1" page="1" pageScale="1" pageWidth="827" pageHeight="1169" math="0" shadow="0">
      <root>
        <mxCell id="0" />
        <mxCell id="1" parent="0" />
        <mxCell id="9XVw_O79pxeB6KCYu5-Q-149" value="" style="shape=cube;whiteSpace=wrap;html=1;boundedLbl=1;backgroundOutline=1;darkOpacity=0.05;darkOpacity2=0.1;fillColor=none;strokeWidth=2;" vertex="1" parent="1">
          <mxGeometry x="40" y="400" width="80" height="80" as="geometry" />
        </mxCell>
        <mxCell id="9XVw_O79pxeB6KCYu5-Q-150" value="" style="shape=cube;whiteSpace=wrap;html=1;boundedLbl=1;backgroundOutline=1;darkOpacity=0.05;darkOpacity2=0.1;fillColor=none;strokeWidth=2;" vertex="1" parent="1">
          <mxGeometry x="70" y="400" width="80" height="80" as="geometry" />
        </mxCell>
        <mxCell id="9XVw_O79pxeB6KCYu5-Q-151" value="" style="shape=cube;whiteSpace=wrap;html=1;boundedLbl=1;backgroundOutline=1;darkOpacity=0.05;darkOpacity2=0.1;fillColor=none;strokeWidth=2;" vertex="1" parent="1">
          <mxGeometry x="100" y="400" width="80" height="80" as="geometry" />
        </mxCell>
        <mxCell id="9XVw_O79pxeB6KCYu5-Q-152" value="" style="shape=cube;whiteSpace=wrap;html=1;boundedLbl=1;backgroundOutline=1;darkOpacity=0.05;darkOpacity2=0.1;fillColor=none;strokeWidth=2;" vertex="1" parent="1">
          <mxGeometry x="240" y="400" width="80" height="80" as="geometry" />
        </mxCell>
        <mxCell id="9XVw_O79pxeB6KCYu5-Q-153" value="" style="shape=cube;whiteSpace=wrap;html=1;boundedLbl=1;backgroundOutline=1;darkOpacity=0.05;darkOpacity2=0.1;fillColor=none;strokeWidth=2;" vertex="1" parent="1">
          <mxGeometry x="270" y="400" width="80" height="80" as="geometry" />
        </mxCell>
        <mxCell id="9XVw_O79pxeB6KCYu5-Q-154" value="" style="shape=cube;whiteSpace=wrap;html=1;boundedLbl=1;backgroundOutline=1;darkOpacity=0.05;darkOpacity2=0.1;fillColor=none;strokeWidth=2;" vertex="1" parent="1">
          <mxGeometry x="300" y="400" width="80" height="80" as="geometry" />
        </mxCell>
        <mxCell id="9XVw_O79pxeB6KCYu5-Q-155" value="" style="endArrow=none;dashed=1;html=1;rounded=0;strokeWidth=2;dashPattern=1 1;" edge="1" parent="1">
          <mxGeometry width="50" height="50" relative="1" as="geometry">
            <mxPoint x="190" y="450" as="sourcePoint" />
            <mxPoint x="230" y="450" as="targetPoint" />
          </mxGeometry>
        </mxCell>
        <mxCell id="9XVw_O79pxeB6KCYu5-Q-156" value="" style="rounded=0;whiteSpace=wrap;html=1;fillColor=none;strokeWidth=2;" vertex="1" parent="1">
          <mxGeometry x="90" y="530" width="10" height="40" as="geometry" />
        </mxCell>
        <mxCell id="9XVw_O79pxeB6KCYu5-Q-160" value="" style="rounded=0;whiteSpace=wrap;html=1;fillColor=none;strokeWidth=2;" vertex="1" parent="1">
          <mxGeometry x="110" y="530" width="10" height="40" as="geometry" />
        </mxCell>
        <mxCell id="9XVw_O79pxeB6KCYu5-Q-161" value="" style="rounded=0;whiteSpace=wrap;html=1;fillColor=none;strokeWidth=2;" vertex="1" parent="1">
          <mxGeometry x="130" y="530" width="10" height="40" as="geometry" />
        </mxCell>
        <mxCell id="9XVw_O79pxeB6KCYu5-Q-165" value="" style="endArrow=none;dashed=1;html=1;rounded=0;strokeWidth=2;dashPattern=1 1;" edge="1" parent="1">
          <mxGeometry width="50" height="50" relative="1" as="geometry">
            <mxPoint x="190" y="550" as="sourcePoint" />
            <mxPoint x="229" y="549.7999999999998" as="targetPoint" />
          </mxGeometry>
        </mxCell>
        <mxCell id="9XVw_O79pxeB6KCYu5-Q-166" value="GRU" style="ellipse;shape=umlControl;whiteSpace=wrap;html=1;fillColor=#fff2cc;fontSize=9;strokeWidth=2;strokeColor=#d6b656;" vertex="1" parent="1">
          <mxGeometry x="212" y="610" width="35" height="40" as="geometry" />
        </mxCell>
        <mxCell id="9XVw_O79pxeB6KCYu5-Q-167" value="" style="rounded=0;whiteSpace=wrap;html=1;fillColor=none;strokeWidth=2;" vertex="1" parent="1">
          <mxGeometry x="280" y="530" width="10" height="40" as="geometry" />
        </mxCell>
        <mxCell id="9XVw_O79pxeB6KCYu5-Q-168" value="" style="rounded=0;whiteSpace=wrap;html=1;fillColor=none;strokeWidth=2;" vertex="1" parent="1">
          <mxGeometry x="300" y="530" width="10" height="40" as="geometry" />
        </mxCell>
        <mxCell id="9XVw_O79pxeB6KCYu5-Q-169" value="" style="rounded=0;whiteSpace=wrap;html=1;fillColor=none;strokeWidth=2;" vertex="1" parent="1">
          <mxGeometry x="320" y="530" width="10" height="40" as="geometry" />
        </mxCell>
        <mxCell id="9XVw_O79pxeB6KCYu5-Q-170" style="edgeStyle=orthogonalEdgeStyle;rounded=0;orthogonalLoop=1;jettySize=auto;html=1;exitX=0;exitY=0.5;exitDx=0;exitDy=0;entryX=1;entryY=0.5;entryDx=0;entryDy=0;fontSize=9;endArrow=none;endFill=0;strokeWidth=2;" edge="1" parent="1" source="9XVw_O79pxeB6KCYu5-Q-158" target="9XVw_O79pxeB6KCYu5-Q-163">
          <mxGeometry relative="1" as="geometry" />
        </mxCell>
        <mxCell id="9XVw_O79pxeB6KCYu5-Q-171" value="shared" style="edgeLabel;html=1;align=center;verticalAlign=middle;resizable=0;points=[];fontSize=9;" vertex="1" connectable="0" parent="9XVw_O79pxeB6KCYu5-Q-170">
          <mxGeometry x="-0.3031" y="2" relative="1" as="geometry">
            <mxPoint x="15" y="2" as="offset" />
          </mxGeometry>
        </mxCell>
        <mxCell id="9XVw_O79pxeB6KCYu5-Q-172" value="" style="strokeWidth=2;html=1;shape=mxgraph.flowchart.annotation_2;align=left;labelPosition=right;pointerEvents=1;fontSize=16;fillColor=none;rotation=-90;" vertex="1" parent="1">
          <mxGeometry x="215" y="440" width="30" height="300" as="geometry" />
        </mxCell>
        <mxCell id="9XVw_O79pxeB6KCYu5-Q-173" value="" style="rounded=0;whiteSpace=wrap;html=1;fillColor=none;strokeWidth=2;" vertex="1" parent="1">
          <mxGeometry x="90" y="660" width="10" height="40" as="geometry" />
        </mxCell>
        <mxCell id="9XVw_O79pxeB6KCYu5-Q-174" value="" style="rounded=0;whiteSpace=wrap;html=1;fillColor=none;strokeWidth=2;" vertex="1" parent="1">
          <mxGeometry x="110" y="660" width="10" height="40" as="geometry" />
        </mxCell>
        <mxCell id="9XVw_O79pxeB6KCYu5-Q-175" value="" style="rounded=0;whiteSpace=wrap;html=1;fillColor=none;strokeWidth=2;" vertex="1" parent="1">
          <mxGeometry x="130" y="660" width="10" height="40" as="geometry" />
        </mxCell>
        <mxCell id="9XVw_O79pxeB6KCYu5-Q-176" value="" style="endArrow=none;dashed=1;html=1;rounded=0;strokeWidth=2;dashPattern=1 1;" edge="1" parent="1">
          <mxGeometry width="50" height="50" relative="1" as="geometry">
            <mxPoint x="190" y="679.8" as="sourcePoint" />
            <mxPoint x="230" y="680" as="targetPoint" />
          </mxGeometry>
        </mxCell>
        <mxCell id="9XVw_O79pxeB6KCYu5-Q-177" value="" style="rounded=0;whiteSpace=wrap;html=1;fillColor=none;strokeWidth=2;" vertex="1" parent="1">
          <mxGeometry x="280" y="660" width="10" height="40" as="geometry" />
        </mxCell>
        <mxCell id="9XVw_O79pxeB6KCYu5-Q-178" value="" style="rounded=0;whiteSpace=wrap;html=1;fillColor=none;strokeWidth=2;" vertex="1" parent="1">
          <mxGeometry x="300" y="660" width="10" height="40" as="geometry" />
        </mxCell>
        <mxCell id="9XVw_O79pxeB6KCYu5-Q-179" value="" style="rounded=0;whiteSpace=wrap;html=1;fillColor=none;strokeWidth=2;" vertex="1" parent="1">
          <mxGeometry x="320" y="660" width="10" height="40" as="geometry" />
        </mxCell>
        <mxCell id="9XVw_O79pxeB6KCYu5-Q-180" value="plaque" style="text;html=1;align=center;verticalAlign=middle;resizable=0;points=[];autosize=1;strokeColor=none;fillColor=none;fontSize=16;" vertex="1" parent="1">
          <mxGeometry x="315" y="740" width="60" height="20" as="geometry" />
        </mxCell>
        <mxCell id="9XVw_O79pxeB6KCYu5-Q-181" value="" style="endArrow=classic;html=1;rounded=0;fontSize=16;strokeColor=#000000;strokeWidth=2;entryX=0.5;entryY=0;entryDx=0;entryDy=0;entryPerimeter=0;" edge="1" parent="1">
          <mxGeometry width="50" height="50" relative="1" as="geometry">
            <mxPoint x="344.56999999999994" y="710" as="sourcePoint" />
            <mxPoint x="345" y="740" as="targetPoint" />
          </mxGeometry>
        </mxCell>
        <mxCell id="9XVw_O79pxeB6KCYu5-Q-182" value="+" style="text;html=1;align=center;verticalAlign=middle;resizable=0;points=[];autosize=1;strokeColor=none;fillColor=none;fontSize=16;" vertex="1" parent="1">
          <mxGeometry x="330" y="540" width="30" height="20" as="geometry" />
        </mxCell>
        <mxCell id="9XVw_O79pxeB6KCYu5-Q-183" value="" style="rounded=0;whiteSpace=wrap;html=1;fillColor=#dae8fc;strokeWidth=2;strokeColor=#6c8ebf;" vertex="1" parent="1">
          <mxGeometry x="360" y="530" width="10" height="40" as="geometry" />
        </mxCell>
        <mxCell id="9XVw_O79pxeB6KCYu5-Q-184" value="" style="rounded=0;whiteSpace=wrap;html=1;fillColor=#dae8fc;strokeWidth=2;strokeColor=#6c8ebf;" vertex="1" parent="1">
          <mxGeometry x="340" y="660" width="10" height="40" as="geometry" />
        </mxCell>
        <mxCell id="9XVw_O79pxeB6KCYu5-Q-222" value="" style="shape=cube;whiteSpace=wrap;html=1;boundedLbl=1;backgroundOutline=1;darkOpacity=0.05;darkOpacity2=0.1;fillColor=none;strokeWidth=2;" vertex="1" parent="1">
          <mxGeometry x="40" y="800" width="320" height="80" as="geometry" />
        </mxCell>
        <mxCell id="9XVw_O79pxeB6KCYu5-Q-239" value="GRU" style="ellipse;shape=umlControl;whiteSpace=wrap;html=1;fillColor=#fff2cc;fontSize=9;strokeWidth=2;strokeColor=#d6b656;" vertex="1" parent="1">
          <mxGeometry x="212" y="1010" width="35" height="40" as="geometry" />
        </mxCell>
        <mxCell id="9XVw_O79pxeB6KCYu5-Q-242" value="" style="rounded=0;whiteSpace=wrap;html=1;fillColor=none;strokeWidth=2;" vertex="1" parent="1">
          <mxGeometry x="90" y="930" width="240" height="40" as="geometry" />
        </mxCell>
        <mxCell id="9XVw_O79pxeB6KCYu5-Q-243" style="edgeStyle=orthogonalEdgeStyle;rounded=0;orthogonalLoop=1;jettySize=auto;html=1;exitX=0;exitY=0.5;exitDx=0;exitDy=0;entryX=1;entryY=0.5;entryDx=0;entryDy=0;fontSize=9;endArrow=none;endFill=0;strokeWidth=2;" edge="1" parent="1" source="9XVw_O79pxeB6KCYu5-Q-231" target="9XVw_O79pxeB6KCYu5-Q-236">
          <mxGeometry relative="1" as="geometry" />
        </mxCell>
        <mxCell id="9XVw_O79pxeB6KCYu5-Q-244" value="shared" style="edgeLabel;html=1;align=center;verticalAlign=middle;resizable=0;points=[];fontSize=9;" vertex="1" connectable="0" parent="9XVw_O79pxeB6KCYu5-Q-243">
          <mxGeometry x="-0.3031" y="2" relative="1" as="geometry">
            <mxPoint x="15" y="2" as="offset" />
          </mxGeometry>
        </mxCell>
        <mxCell id="9XVw_O79pxeB6KCYu5-Q-245" value="" style="strokeWidth=2;html=1;shape=mxgraph.flowchart.annotation_2;align=left;labelPosition=right;pointerEvents=1;fontSize=16;fillColor=none;rotation=-90;" vertex="1" parent="1">
          <mxGeometry x="215" y="840" width="30" height="300" as="geometry" />
        </mxCell>
        <mxCell id="9XVw_O79pxeB6KCYu5-Q-253" value="plaque" style="text;html=1;align=center;verticalAlign=middle;resizable=0;points=[];autosize=1;strokeColor=none;fillColor=none;fontSize=16;" vertex="1" parent="1">
          <mxGeometry x="305" y="1140" width="60" height="20" as="geometry" />
        </mxCell>
        <mxCell id="9XVw_O79pxeB6KCYu5-Q-254" value="" style="endArrow=classic;html=1;rounded=0;fontSize=16;strokeColor=#000000;strokeWidth=2;entryX=0.5;entryY=0;entryDx=0;entryDy=0;entryPerimeter=0;" edge="1" parent="1">
          <mxGeometry width="50" height="50" relative="1" as="geometry">
            <mxPoint x="334.5699999999997" y="1110" as="sourcePoint" />
            <mxPoint x="335" y="1140" as="targetPoint" />
          </mxGeometry>
        </mxCell>
        <mxCell id="9XVw_O79pxeB6KCYu5-Q-255" value="+" style="text;html=1;align=center;verticalAlign=middle;resizable=0;points=[];autosize=1;strokeColor=none;fillColor=none;fontSize=16;" vertex="1" parent="1">
          <mxGeometry x="330" y="940" width="30" height="20" as="geometry" />
        </mxCell>
        <mxCell id="9XVw_O79pxeB6KCYu5-Q-256" value="" style="rounded=0;whiteSpace=wrap;html=1;fillColor=#dae8fc;strokeWidth=2;strokeColor=#6c8ebf;" vertex="1" parent="1">
          <mxGeometry x="330" y="1060" width="10" height="40" as="geometry" />
        </mxCell>
        <mxCell id="9XVw_O79pxeB6KCYu5-Q-266" value="" style="rounded=0;whiteSpace=wrap;html=1;fillColor=none;strokeWidth=2;" vertex="1" parent="1">
          <mxGeometry x="90" y="1060" width="240" height="40" as="geometry" />
        </mxCell>
        <mxCell id="9XVw_O79pxeB6KCYu5-Q-267" value="" style="rounded=0;whiteSpace=wrap;html=1;fillColor=#dae8fc;strokeWidth=2;strokeColor=#6c8ebf;" vertex="1" parent="1">
          <mxGeometry x="360" y="930" width="10" height="40" as="geometry" />
        </mxCell>
        <mxCell id="9XVw_O79pxeB6KCYu5-Q-286" value="overlapping&amp;nbsp;&lt;br&gt;patches" style="text;html=1;align=center;verticalAlign=middle;resizable=0;points=[];autosize=1;strokeColor=none;fillColor=none;fontSize=16;rotation=-90;" vertex="1" parent="1">
          <mxGeometry x="429" y="420" width="100" height="40" as="geometry" />
        </mxCell>
        <mxCell id="9XVw_O79pxeB6KCYu5-Q-287" value="embedding&lt;br&gt;&amp;nbsp;+ token" style="text;html=1;align=center;verticalAlign=middle;resizable=0;points=[];autosize=1;strokeColor=none;fillColor=none;fontSize=16;rotation=-90;" vertex="1" parent="1">
          <mxGeometry x="429" y="540" width="90" height="40" as="geometry" />
        </mxCell>
        <mxCell id="9XVw_O79pxeB6KCYu5-Q-288" value="sequence" style="text;html=1;align=center;verticalAlign=middle;resizable=0;points=[];autosize=1;strokeColor=none;fillColor=none;fontSize=16;rotation=-90;" vertex="1" parent="1">
          <mxGeometry x="419" y="660" width="90" height="20" as="geometry" />
        </mxCell>
        <mxCell id="9XVw_O79pxeB6KCYu5-Q-289" value="" style="strokeWidth=2;html=1;shape=mxgraph.flowchart.annotation_2;align=left;labelPosition=right;pointerEvents=1;fontSize=16;fillColor=none;rotation=-180;" vertex="1" parent="1">
          <mxGeometry x="409" y="400" width="30" height="80" as="geometry" />
        </mxCell>
        <mxCell id="9XVw_O79pxeB6KCYu5-Q-290" value="" style="strokeWidth=2;html=1;shape=mxgraph.flowchart.annotation_2;align=left;labelPosition=right;pointerEvents=1;fontSize=16;fillColor=none;rotation=-180;" vertex="1" parent="1">
          <mxGeometry x="409" y="520" width="30" height="80" as="geometry" />
        </mxCell>
        <mxCell id="9XVw_O79pxeB6KCYu5-Q-291" value="" style="strokeWidth=2;html=1;shape=mxgraph.flowchart.annotation_2;align=left;labelPosition=right;pointerEvents=1;fontSize=16;fillColor=none;rotation=-180;" vertex="1" parent="1">
          <mxGeometry x="409" y="640" width="30" height="70" as="geometry" />
        </mxCell>
        <mxCell id="9XVw_O79pxeB6KCYu5-Q-293" value="overlapping&amp;nbsp;&lt;br&gt;patches" style="text;html=1;align=center;verticalAlign=middle;resizable=0;points=[];autosize=1;strokeColor=none;fillColor=none;fontSize=16;rotation=-90;" vertex="1" parent="1">
          <mxGeometry x="434" y="40" width="100" height="40" as="geometry" />
        </mxCell>
        <mxCell id="9XVw_O79pxeB6KCYu5-Q-294" value="embedding&lt;br&gt;&amp;nbsp;" style="text;html=1;align=center;verticalAlign=middle;resizable=0;points=[];autosize=1;strokeColor=none;fillColor=none;fontSize=16;rotation=-90;" vertex="1" parent="1">
          <mxGeometry x="434" y="160" width="90" height="40" as="geometry" />
        </mxCell>
        <mxCell id="9XVw_O79pxeB6KCYu5-Q-295" value="sequence" style="text;html=1;align=center;verticalAlign=middle;resizable=0;points=[];autosize=1;strokeColor=none;fillColor=none;fontSize=16;rotation=-90;" vertex="1" parent="1">
          <mxGeometry x="424" y="280" width="90" height="20" as="geometry" />
        </mxCell>
        <mxCell id="9XVw_O79pxeB6KCYu5-Q-296" value="" style="strokeWidth=2;html=1;shape=mxgraph.flowchart.annotation_2;align=left;labelPosition=right;pointerEvents=1;fontSize=16;fillColor=none;rotation=-180;" vertex="1" parent="1">
          <mxGeometry x="414" y="20" width="30" height="80" as="geometry" />
        </mxCell>
        <mxCell id="9XVw_O79pxeB6KCYu5-Q-297" value="" style="strokeWidth=2;html=1;shape=mxgraph.flowchart.annotation_2;align=left;labelPosition=right;pointerEvents=1;fontSize=16;fillColor=none;rotation=-180;" vertex="1" parent="1">
          <mxGeometry x="414" y="140" width="30" height="80" as="geometry" />
        </mxCell>
        <mxCell id="9XVw_O79pxeB6KCYu5-Q-298" value="" style="strokeWidth=2;html=1;shape=mxgraph.flowchart.annotation_2;align=left;labelPosition=right;pointerEvents=1;fontSize=16;fillColor=none;rotation=-180;" vertex="1" parent="1">
          <mxGeometry x="414" y="260" width="30" height="70" as="geometry" />
        </mxCell>
        <mxCell id="9XVw_O79pxeB6KCYu5-Q-299" value="MPR volume" style="text;html=1;align=center;verticalAlign=middle;resizable=0;points=[];autosize=1;strokeColor=none;fillColor=none;fontSize=16;rotation=-90;" vertex="1" parent="1">
          <mxGeometry x="424" y="830" width="110" height="20" as="geometry" />
        </mxCell>
        <mxCell id="9XVw_O79pxeB6KCYu5-Q-300" value="embedding&lt;br&gt;&amp;nbsp;+ token" style="text;html=1;align=center;verticalAlign=middle;resizable=0;points=[];autosize=1;strokeColor=none;fillColor=none;fontSize=16;rotation=-90;" vertex="1" parent="1">
          <mxGeometry x="429" y="940" width="90" height="40" as="geometry" />
        </mxCell>
        <mxCell id="9XVw_O79pxeB6KCYu5-Q-301" value="sequence" style="text;html=1;align=center;verticalAlign=middle;resizable=0;points=[];autosize=1;strokeColor=none;fillColor=none;fontSize=16;rotation=-90;" vertex="1" parent="1">
          <mxGeometry x="419" y="1060" width="90" height="20" as="geometry" />
        </mxCell>
        <mxCell id="9XVw_O79pxeB6KCYu5-Q-302" value="" style="strokeWidth=2;html=1;shape=mxgraph.flowchart.annotation_2;align=left;labelPosition=right;pointerEvents=1;fontSize=16;fillColor=none;rotation=-180;" vertex="1" parent="1">
          <mxGeometry x="409" y="800" width="30" height="80" as="geometry" />
        </mxCell>
        <mxCell id="9XVw_O79pxeB6KCYu5-Q-303" value="" style="strokeWidth=2;html=1;shape=mxgraph.flowchart.annotation_2;align=left;labelPosition=right;pointerEvents=1;fontSize=16;fillColor=none;rotation=-180;" vertex="1" parent="1">
          <mxGeometry x="409" y="920" width="30" height="80" as="geometry" />
        </mxCell>
        <mxCell id="9XVw_O79pxeB6KCYu5-Q-304" value="" style="strokeWidth=2;html=1;shape=mxgraph.flowchart.annotation_2;align=left;labelPosition=right;pointerEvents=1;fontSize=16;fillColor=none;rotation=-180;" vertex="1" parent="1">
          <mxGeometry x="409" y="1040" width="30" height="70" as="geometry" />
        </mxCell>
        <mxCell id="9XVw_O79pxeB6KCYu5-Q-312" value="GRU" style="ellipse;shape=umlControl;whiteSpace=wrap;html=1;fillColor=#fff2cc;fontSize=9;strokeWidth=2;strokeColor=#d6b656;" vertex="1" parent="1">
          <mxGeometry x="1072" y="1010" width="35" height="40" as="geometry" />
        </mxCell>
        <mxCell id="9XVw_O79pxeB6KCYu5-Q-313" value="" style="rounded=0;whiteSpace=wrap;html=1;fillColor=none;strokeWidth=2;" vertex="1" parent="1">
          <mxGeometry x="950" y="930" width="240" height="40" as="geometry" />
        </mxCell>
        <mxCell id="9XVw_O79pxeB6KCYu5-Q-314" style="edgeStyle=orthogonalEdgeStyle;rounded=0;orthogonalLoop=1;jettySize=auto;html=1;exitX=0;exitY=0.5;exitDx=0;exitDy=0;entryX=1;entryY=0.5;entryDx=0;entryDy=0;fontSize=9;endArrow=none;endFill=0;strokeWidth=2;" edge="1" parent="1" source="9XVw_O79pxeB6KCYu5-Q-307" target="9XVw_O79pxeB6KCYu5-Q-310">
          <mxGeometry relative="1" as="geometry" />
        </mxCell>
        <mxCell id="9XVw_O79pxeB6KCYu5-Q-315" value="shared" style="edgeLabel;html=1;align=center;verticalAlign=middle;resizable=0;points=[];fontSize=9;" vertex="1" connectable="0" parent="9XVw_O79pxeB6KCYu5-Q-314">
          <mxGeometry x="-0.3031" y="2" relative="1" as="geometry">
            <mxPoint x="29" y="2" as="offset" />
          </mxGeometry>
        </mxCell>
        <mxCell id="9XVw_O79pxeB6KCYu5-Q-316" value="" style="strokeWidth=2;html=1;shape=mxgraph.flowchart.annotation_2;align=left;labelPosition=right;pointerEvents=1;fontSize=16;fillColor=none;rotation=-90;" vertex="1" parent="1">
          <mxGeometry x="1075" y="840" width="30" height="300" as="geometry" />
        </mxCell>
        <mxCell id="9XVw_O79pxeB6KCYu5-Q-317" value="plaque" style="text;html=1;align=center;verticalAlign=middle;resizable=0;points=[];autosize=1;strokeColor=none;fillColor=none;fontSize=16;" vertex="1" parent="1">
          <mxGeometry x="1165" y="1140" width="60" height="20" as="geometry" />
        </mxCell>
        <mxCell id="9XVw_O79pxeB6KCYu5-Q-318" value="" style="endArrow=classic;html=1;rounded=0;fontSize=16;strokeColor=#000000;strokeWidth=2;entryX=0.5;entryY=0;entryDx=0;entryDy=0;entryPerimeter=0;" edge="1" parent="1">
          <mxGeometry width="50" height="50" relative="1" as="geometry">
            <mxPoint x="1194.5699999999997" y="1109.9999999999998" as="sourcePoint" />
            <mxPoint x="1195" y="1139.9999999999998" as="targetPoint" />
          </mxGeometry>
        </mxCell>
        <mxCell id="9XVw_O79pxeB6KCYu5-Q-319" value="+" style="text;html=1;align=center;verticalAlign=middle;resizable=0;points=[];autosize=1;strokeColor=none;fillColor=none;fontSize=16;" vertex="1" parent="1">
          <mxGeometry x="1190" y="940" width="30" height="20" as="geometry" />
        </mxCell>
        <mxCell id="9XVw_O79pxeB6KCYu5-Q-320" value="" style="rounded=0;whiteSpace=wrap;html=1;fillColor=#dae8fc;strokeWidth=2;strokeColor=#6c8ebf;" vertex="1" parent="1">
          <mxGeometry x="1190" y="1060" width="10" height="40" as="geometry" />
        </mxCell>
        <mxCell id="9XVw_O79pxeB6KCYu5-Q-321" value="" style="rounded=0;whiteSpace=wrap;html=1;fillColor=none;strokeWidth=2;" vertex="1" parent="1">
          <mxGeometry x="950" y="1060" width="240" height="40" as="geometry" />
        </mxCell>
        <mxCell id="9XVw_O79pxeB6KCYu5-Q-322" value="" style="rounded=0;whiteSpace=wrap;html=1;fillColor=#dae8fc;strokeWidth=2;strokeColor=#6c8ebf;" vertex="1" parent="1">
          <mxGeometry x="1220" y="930" width="10" height="40" as="geometry" />
        </mxCell>
        <mxCell id="9XVw_O79pxeB6KCYu5-Q-323" value="MPR Circ" style="text;html=1;align=center;verticalAlign=middle;resizable=0;points=[];autosize=1;strokeColor=none;fillColor=none;fontSize=16;rotation=-90;" vertex="1" parent="1">
          <mxGeometry x="1299" y="830" width="80" height="20" as="geometry" />
        </mxCell>
        <mxCell id="9XVw_O79pxeB6KCYu5-Q-324" value="embedding&lt;br&gt;&amp;nbsp;+ token" style="text;html=1;align=center;verticalAlign=middle;resizable=0;points=[];autosize=1;strokeColor=none;fillColor=none;fontSize=16;rotation=-90;" vertex="1" parent="1">
          <mxGeometry x="1289" y="940" width="90" height="40" as="geometry" />
        </mxCell>
        <mxCell id="9XVw_O79pxeB6KCYu5-Q-325" value="sequence" style="text;html=1;align=center;verticalAlign=middle;resizable=0;points=[];autosize=1;strokeColor=none;fillColor=none;fontSize=16;rotation=-90;" vertex="1" parent="1">
          <mxGeometry x="1279" y="1060" width="90" height="20" as="geometry" />
        </mxCell>
        <mxCell id="9XVw_O79pxeB6KCYu5-Q-326" value="" style="strokeWidth=2;html=1;shape=mxgraph.flowchart.annotation_2;align=left;labelPosition=right;pointerEvents=1;fontSize=16;fillColor=none;rotation=-180;" vertex="1" parent="1">
          <mxGeometry x="1269" y="800" width="30" height="80" as="geometry" />
        </mxCell>
        <mxCell id="9XVw_O79pxeB6KCYu5-Q-327" value="" style="strokeWidth=2;html=1;shape=mxgraph.flowchart.annotation_2;align=left;labelPosition=right;pointerEvents=1;fontSize=16;fillColor=none;rotation=-180;" vertex="1" parent="1">
          <mxGeometry x="1269" y="920" width="30" height="80" as="geometry" />
        </mxCell>
        <mxCell id="9XVw_O79pxeB6KCYu5-Q-328" value="" style="strokeWidth=2;html=1;shape=mxgraph.flowchart.annotation_2;align=left;labelPosition=right;pointerEvents=1;fontSize=16;fillColor=none;rotation=-180;" vertex="1" parent="1">
          <mxGeometry x="1269" y="1040" width="30" height="70" as="geometry" />
        </mxCell>
        <mxCell id="9XVw_O79pxeB6KCYu5-Q-340" value="" style="group" vertex="1" connectable="0" parent="1">
          <mxGeometry x="921" y="790" width="299" height="80" as="geometry" />
        </mxCell>
        <mxCell id="9XVw_O79pxeB6KCYu5-Q-336" value="" style="rounded=0;whiteSpace=wrap;html=1;fontSize=10;strokeColor=#000000;strokeWidth=2;fillColor=none;" vertex="1" parent="9XVw_O79pxeB6KCYu5-Q-340">
          <mxGeometry width="280.3125" height="60" as="geometry" />
        </mxCell>
        <mxCell id="9XVw_O79pxeB6KCYu5-Q-338" value="" style="rounded=0;whiteSpace=wrap;html=1;fontSize=10;strokeWidth=2;" vertex="1" parent="9XVw_O79pxeB6KCYu5-Q-340">
          <mxGeometry x="9.34375" y="10" width="280.3125" height="60" as="geometry" />
        </mxCell>
        <mxCell id="9XVw_O79pxeB6KCYu5-Q-339" value="" style="rounded=0;whiteSpace=wrap;html=1;fontSize=10;strokeWidth=2;" vertex="1" parent="9XVw_O79pxeB6KCYu5-Q-340">
          <mxGeometry x="18.6875" y="20" width="280.3125" height="60" as="geometry" />
        </mxCell>
        <mxCell id="9XVw_O79pxeB6KCYu5-Q-342" value="" style="group;fontSize=9;strokeWidth=2;" vertex="1" connectable="0" parent="1">
          <mxGeometry x="59" y="1330" width="80" height="30" as="geometry" />
        </mxCell>
        <mxCell id="9XVw_O79pxeB6KCYu5-Q-343" value="" style="shape=trapezoid;perimeter=trapezoidPerimeter;whiteSpace=wrap;html=1;fixedSize=1;fillColor=none;rotation=-180;size=10;strokeWidth=2;" vertex="1" parent="9XVw_O79pxeB6KCYu5-Q-342">
          <mxGeometry width="70" height="30" as="geometry" />
        </mxCell>
        <mxCell id="9XVw_O79pxeB6KCYu5-Q-344" value="&lt;font style=&quot;font-size: 9px&quot;&gt;ResNet&lt;/font&gt;" style="text;html=1;align=center;verticalAlign=middle;resizable=0;points=[];autosize=1;strokeColor=none;fillColor=none;" vertex="1" parent="9XVw_O79pxeB6KCYu5-Q-342">
          <mxGeometry x="10" y="5" width="50" height="20" as="geometry" />
        </mxCell>
        <mxCell id="9XVw_O79pxeB6KCYu5-Q-345" value="" style="group;fontSize=9;strokeWidth=2;" vertex="1" connectable="0" parent="1">
          <mxGeometry x="249" y="1330" width="70" height="30" as="geometry" />
        </mxCell>
        <mxCell id="9XVw_O79pxeB6KCYu5-Q-346" value="" style="shape=trapezoid;perimeter=trapezoidPerimeter;whiteSpace=wrap;html=1;fixedSize=1;fillColor=none;rotation=-180;size=10;strokeWidth=2;" vertex="1" parent="9XVw_O79pxeB6KCYu5-Q-345">
          <mxGeometry width="70" height="30" as="geometry" />
        </mxCell>
        <mxCell id="9XVw_O79pxeB6KCYu5-Q-347" value="&lt;font style=&quot;font-size: 9px&quot;&gt;ResNet&lt;/font&gt;" style="text;html=1;align=center;verticalAlign=middle;resizable=0;points=[];autosize=1;strokeColor=none;fillColor=none;" vertex="1" parent="9XVw_O79pxeB6KCYu5-Q-345">
          <mxGeometry x="10.125" y="5" width="50" height="20" as="geometry" />
        </mxCell>
        <mxCell id="9XVw_O79pxeB6KCYu5-Q-348" value="GRU" style="ellipse;shape=umlControl;whiteSpace=wrap;html=1;fillColor=#fff2cc;fontSize=9;strokeWidth=2;strokeColor=#d6b656;" vertex="1" parent="1">
          <mxGeometry x="191" y="1460" width="35" height="40" as="geometry" />
        </mxCell>
        <mxCell id="9XVw_O79pxeB6KCYu5-Q-349" value="" style="rounded=0;whiteSpace=wrap;html=1;fillColor=none;strokeWidth=2;" vertex="1" parent="1">
          <mxGeometry x="69" y="1380" width="240" height="40" as="geometry" />
        </mxCell>
        <mxCell id="9XVw_O79pxeB6KCYu5-Q-350" style="edgeStyle=orthogonalEdgeStyle;rounded=0;orthogonalLoop=1;jettySize=auto;html=1;exitX=0;exitY=0.5;exitDx=0;exitDy=0;entryX=1;entryY=0.5;entryDx=0;entryDy=0;fontSize=9;endArrow=none;endFill=0;strokeWidth=2;" edge="1" parent="1" source="9XVw_O79pxeB6KCYu5-Q-343" target="9XVw_O79pxeB6KCYu5-Q-346">
          <mxGeometry relative="1" as="geometry" />
        </mxCell>
        <mxCell id="9XVw_O79pxeB6KCYu5-Q-351" value="shared" style="edgeLabel;html=1;align=center;verticalAlign=middle;resizable=0;points=[];fontSize=9;" vertex="1" connectable="0" parent="9XVw_O79pxeB6KCYu5-Q-350">
          <mxGeometry x="-0.3031" y="2" relative="1" as="geometry">
            <mxPoint x="22" y="2" as="offset" />
          </mxGeometry>
        </mxCell>
        <mxCell id="9XVw_O79pxeB6KCYu5-Q-352" value="" style="strokeWidth=2;html=1;shape=mxgraph.flowchart.annotation_2;align=left;labelPosition=right;pointerEvents=1;fontSize=16;fillColor=none;rotation=-90;" vertex="1" parent="1">
          <mxGeometry x="194" y="1290" width="30" height="300" as="geometry" />
        </mxCell>
        <mxCell id="9XVw_O79pxeB6KCYu5-Q-353" value="plaque" style="text;html=1;align=center;verticalAlign=middle;resizable=0;points=[];autosize=1;strokeColor=none;fillColor=none;fontSize=16;" vertex="1" parent="1">
          <mxGeometry x="284" y="1590" width="60" height="20" as="geometry" />
        </mxCell>
        <mxCell id="9XVw_O79pxeB6KCYu5-Q-354" value="" style="endArrow=classic;html=1;rounded=0;fontSize=16;strokeColor=#000000;strokeWidth=2;entryX=0.5;entryY=0;entryDx=0;entryDy=0;entryPerimeter=0;" edge="1" parent="1">
          <mxGeometry width="50" height="50" relative="1" as="geometry">
            <mxPoint x="313.5699999999997" y="1560" as="sourcePoint" />
            <mxPoint x="314" y="1590" as="targetPoint" />
          </mxGeometry>
        </mxCell>
        <mxCell id="9XVw_O79pxeB6KCYu5-Q-355" value="+" style="text;html=1;align=center;verticalAlign=middle;resizable=0;points=[];autosize=1;strokeColor=none;fillColor=none;fontSize=16;" vertex="1" parent="1">
          <mxGeometry x="309" y="1390" width="30" height="20" as="geometry" />
        </mxCell>
        <mxCell id="9XVw_O79pxeB6KCYu5-Q-356" value="" style="rounded=0;whiteSpace=wrap;html=1;fillColor=#dae8fc;strokeWidth=2;strokeColor=#6c8ebf;" vertex="1" parent="1">
          <mxGeometry x="309" y="1510" width="10" height="40" as="geometry" />
        </mxCell>
        <mxCell id="9XVw_O79pxeB6KCYu5-Q-357" value="" style="rounded=0;whiteSpace=wrap;html=1;fillColor=none;strokeWidth=2;" vertex="1" parent="1">
          <mxGeometry x="69" y="1510" width="240" height="40" as="geometry" />
        </mxCell>
        <mxCell id="9XVw_O79pxeB6KCYu5-Q-358" value="" style="rounded=0;whiteSpace=wrap;html=1;fillColor=#dae8fc;strokeWidth=2;strokeColor=#6c8ebf;" vertex="1" parent="1">
          <mxGeometry x="339" y="1380" width="10" height="40" as="geometry" />
        </mxCell>
        <mxCell id="9XVw_O79pxeB6KCYu5-Q-359" value="MPR Circ" style="text;html=1;align=center;verticalAlign=middle;resizable=0;points=[];autosize=1;strokeColor=none;fillColor=none;fontSize=16;rotation=-90;" vertex="1" parent="1">
          <mxGeometry x="418" y="1270" width="80" height="20" as="geometry" />
        </mxCell>
        <mxCell id="9XVw_O79pxeB6KCYu5-Q-360" value="embedding&lt;br&gt;&amp;nbsp;+ token" style="text;html=1;align=center;verticalAlign=middle;resizable=0;points=[];autosize=1;strokeColor=none;fillColor=none;fontSize=16;rotation=-90;" vertex="1" parent="1">
          <mxGeometry x="408" y="1390" width="90" height="40" as="geometry" />
        </mxCell>
        <mxCell id="9XVw_O79pxeB6KCYu5-Q-361" value="sequence" style="text;html=1;align=center;verticalAlign=middle;resizable=0;points=[];autosize=1;strokeColor=none;fillColor=none;fontSize=16;rotation=-90;" vertex="1" parent="1">
          <mxGeometry x="398" y="1510" width="90" height="20" as="geometry" />
        </mxCell>
        <mxCell id="9XVw_O79pxeB6KCYu5-Q-362" value="" style="strokeWidth=2;html=1;shape=mxgraph.flowchart.annotation_2;align=left;labelPosition=right;pointerEvents=1;fontSize=16;fillColor=none;rotation=-180;" vertex="1" parent="1">
          <mxGeometry x="388" y="1240" width="30" height="80" as="geometry" />
        </mxCell>
        <mxCell id="9XVw_O79pxeB6KCYu5-Q-363" value="" style="strokeWidth=2;html=1;shape=mxgraph.flowchart.annotation_2;align=left;labelPosition=right;pointerEvents=1;fontSize=16;fillColor=none;rotation=-180;" vertex="1" parent="1">
          <mxGeometry x="388" y="1370" width="30" height="80" as="geometry" />
        </mxCell>
        <mxCell id="9XVw_O79pxeB6KCYu5-Q-364" value="" style="strokeWidth=2;html=1;shape=mxgraph.flowchart.annotation_2;align=left;labelPosition=right;pointerEvents=1;fontSize=16;fillColor=none;rotation=-180;" vertex="1" parent="1">
          <mxGeometry x="388" y="1490" width="30" height="70" as="geometry" />
        </mxCell>
        <mxCell id="9XVw_O79pxeB6KCYu5-Q-365" value="" style="group" vertex="1" connectable="0" parent="1">
          <mxGeometry x="40" y="1230" width="299" height="80" as="geometry" />
        </mxCell>
        <mxCell id="9XVw_O79pxeB6KCYu5-Q-366" value="" style="rounded=0;whiteSpace=wrap;html=1;fontSize=10;strokeColor=#000000;strokeWidth=2;fillColor=none;" vertex="1" parent="9XVw_O79pxeB6KCYu5-Q-365">
          <mxGeometry width="280.3125" height="60" as="geometry" />
        </mxCell>
        <mxCell id="9XVw_O79pxeB6KCYu5-Q-367" value="" style="rounded=0;whiteSpace=wrap;html=1;fontSize=10;strokeWidth=2;" vertex="1" parent="9XVw_O79pxeB6KCYu5-Q-365">
          <mxGeometry x="9.34375" y="10" width="280.3125" height="60" as="geometry" />
        </mxCell>
        <mxCell id="9XVw_O79pxeB6KCYu5-Q-368" value="" style="rounded=0;whiteSpace=wrap;html=1;fontSize=10;strokeWidth=2;" vertex="1" parent="9XVw_O79pxeB6KCYu5-Q-365">
          <mxGeometry x="18.6875" y="20" width="280.3125" height="60" as="geometry" />
        </mxCell>
        <mxCell id="9XVw_O79pxeB6KCYu5-Q-1" value="" style="shape=cube;whiteSpace=wrap;html=1;boundedLbl=1;backgroundOutline=1;darkOpacity=0.05;darkOpacity2=0.1;fillColor=none;strokeWidth=2;" vertex="1" parent="1">
          <mxGeometry x="40" y="20" width="80" height="80" as="geometry" />
        </mxCell>
        <mxCell id="9XVw_O79pxeB6KCYu5-Q-8" value="" style="shape=cube;whiteSpace=wrap;html=1;boundedLbl=1;backgroundOutline=1;darkOpacity=0.05;darkOpacity2=0.1;fillColor=none;strokeWidth=2;" vertex="1" parent="1">
          <mxGeometry x="70" y="20" width="80" height="80" as="geometry" />
        </mxCell>
        <mxCell id="9XVw_O79pxeB6KCYu5-Q-9" value="" style="shape=cube;whiteSpace=wrap;html=1;boundedLbl=1;backgroundOutline=1;darkOpacity=0.05;darkOpacity2=0.1;fillColor=none;strokeWidth=2;" vertex="1" parent="1">
          <mxGeometry x="100" y="20" width="80" height="80" as="geometry" />
        </mxCell>
        <mxCell id="9XVw_O79pxeB6KCYu5-Q-10" value="" style="shape=cube;whiteSpace=wrap;html=1;boundedLbl=1;backgroundOutline=1;darkOpacity=0.05;darkOpacity2=0.1;fillColor=none;strokeWidth=2;" vertex="1" parent="1">
          <mxGeometry x="240" y="20" width="80" height="80" as="geometry" />
        </mxCell>
        <mxCell id="9XVw_O79pxeB6KCYu5-Q-11" value="" style="shape=cube;whiteSpace=wrap;html=1;boundedLbl=1;backgroundOutline=1;darkOpacity=0.05;darkOpacity2=0.1;fillColor=none;strokeWidth=2;" vertex="1" parent="1">
          <mxGeometry x="270" y="20" width="80" height="80" as="geometry" />
        </mxCell>
        <mxCell id="9XVw_O79pxeB6KCYu5-Q-12" value="" style="shape=cube;whiteSpace=wrap;html=1;boundedLbl=1;backgroundOutline=1;darkOpacity=0.05;darkOpacity2=0.1;fillColor=none;strokeWidth=2;" vertex="1" parent="1">
          <mxGeometry x="300" y="20" width="80" height="80" as="geometry" />
        </mxCell>
        <mxCell id="9XVw_O79pxeB6KCYu5-Q-14" value="" style="endArrow=none;dashed=1;html=1;rounded=0;strokeWidth=2;dashPattern=1 1;" edge="1" parent="1">
          <mxGeometry width="50" height="50" relative="1" as="geometry">
            <mxPoint x="190" y="70" as="sourcePoint" />
            <mxPoint x="230" y="70" as="targetPoint" />
          </mxGeometry>
        </mxCell>
        <mxCell id="9XVw_O79pxeB6KCYu5-Q-24" value="" style="rounded=0;whiteSpace=wrap;html=1;fillColor=none;strokeWidth=2;" vertex="1" parent="1">
          <mxGeometry x="90" y="150" width="10" height="40" as="geometry" />
        </mxCell>
        <mxCell id="9XVw_O79pxeB6KCYu5-Q-28" value="" style="rounded=0;whiteSpace=wrap;html=1;fillColor=none;strokeWidth=2;" vertex="1" parent="1">
          <mxGeometry x="110" y="150" width="10" height="40" as="geometry" />
        </mxCell>
        <mxCell id="9XVw_O79pxeB6KCYu5-Q-29" value="" style="rounded=0;whiteSpace=wrap;html=1;fillColor=none;strokeWidth=2;" vertex="1" parent="1">
          <mxGeometry x="130" y="150" width="10" height="40" as="geometry" />
        </mxCell>
        <mxCell id="9XVw_O79pxeB6KCYu5-Q-39" value="" style="endArrow=none;dashed=1;html=1;rounded=0;strokeWidth=2;dashPattern=1 1;" edge="1" parent="1">
          <mxGeometry width="50" height="50" relative="1" as="geometry">
            <mxPoint x="190" y="170" as="sourcePoint" />
            <mxPoint x="229" y="169.8" as="targetPoint" />
          </mxGeometry>
        </mxCell>
        <mxCell id="9XVw_O79pxeB6KCYu5-Q-52" value="GRU" style="ellipse;shape=umlControl;whiteSpace=wrap;html=1;fillColor=#fff2cc;fontSize=9;strokeWidth=2;strokeColor=#d6b656;" vertex="1" parent="1">
          <mxGeometry x="192.5" y="230" width="35" height="40" as="geometry" />
        </mxCell>
        <mxCell id="9XVw_O79pxeB6KCYu5-Q-53" value="" style="rounded=0;whiteSpace=wrap;html=1;fillColor=none;strokeWidth=2;" vertex="1" parent="1">
          <mxGeometry x="280" y="150" width="10" height="40" as="geometry" />
        </mxCell>
        <mxCell id="9XVw_O79pxeB6KCYu5-Q-54" value="" style="rounded=0;whiteSpace=wrap;html=1;fillColor=none;strokeWidth=2;" vertex="1" parent="1">
          <mxGeometry x="300" y="150" width="10" height="40" as="geometry" />
        </mxCell>
        <mxCell id="9XVw_O79pxeB6KCYu5-Q-55" value="" style="rounded=0;whiteSpace=wrap;html=1;fillColor=none;strokeWidth=2;" vertex="1" parent="1">
          <mxGeometry x="320" y="150" width="10" height="40" as="geometry" />
        </mxCell>
        <mxCell id="9XVw_O79pxeB6KCYu5-Q-72" style="edgeStyle=orthogonalEdgeStyle;rounded=0;orthogonalLoop=1;jettySize=auto;html=1;exitX=0;exitY=0.5;exitDx=0;exitDy=0;entryX=1;entryY=0.5;entryDx=0;entryDy=0;fontSize=9;endArrow=none;endFill=0;strokeWidth=2;" edge="1" parent="1" source="9XVw_O79pxeB6KCYu5-Q-16" target="9XVw_O79pxeB6KCYu5-Q-35">
          <mxGeometry relative="1" as="geometry" />
        </mxCell>
        <mxCell id="9XVw_O79pxeB6KCYu5-Q-73" value="shared" style="edgeLabel;html=1;align=center;verticalAlign=middle;resizable=0;points=[];fontSize=9;" vertex="1" connectable="0" parent="9XVw_O79pxeB6KCYu5-Q-72">
          <mxGeometry x="-0.3031" y="2" relative="1" as="geometry">
            <mxPoint x="15" y="2" as="offset" />
          </mxGeometry>
        </mxCell>
        <mxCell id="9XVw_O79pxeB6KCYu5-Q-128" value="" style="strokeWidth=2;html=1;shape=mxgraph.flowchart.annotation_2;align=left;labelPosition=right;pointerEvents=1;fontSize=16;fillColor=none;rotation=-90;" vertex="1" parent="1">
          <mxGeometry x="195" y="80" width="30" height="260" as="geometry" />
        </mxCell>
        <mxCell id="9XVw_O79pxeB6KCYu5-Q-129" value="" style="rounded=0;whiteSpace=wrap;html=1;fillColor=none;strokeWidth=2;" vertex="1" parent="1">
          <mxGeometry x="90" y="280" width="10" height="40" as="geometry" />
        </mxCell>
        <mxCell id="9XVw_O79pxeB6KCYu5-Q-130" value="" style="rounded=0;whiteSpace=wrap;html=1;fillColor=none;strokeWidth=2;" vertex="1" parent="1">
          <mxGeometry x="110" y="280" width="10" height="40" as="geometry" />
        </mxCell>
        <mxCell id="9XVw_O79pxeB6KCYu5-Q-131" value="" style="rounded=0;whiteSpace=wrap;html=1;fillColor=none;strokeWidth=2;" vertex="1" parent="1">
          <mxGeometry x="130" y="280" width="10" height="40" as="geometry" />
        </mxCell>
        <mxCell id="9XVw_O79pxeB6KCYu5-Q-132" value="" style="endArrow=none;dashed=1;html=1;rounded=0;strokeWidth=2;dashPattern=1 1;" edge="1" parent="1">
          <mxGeometry width="50" height="50" relative="1" as="geometry">
            <mxPoint x="190" y="299.79999999999995" as="sourcePoint" />
            <mxPoint x="230" y="300" as="targetPoint" />
          </mxGeometry>
        </mxCell>
        <mxCell id="9XVw_O79pxeB6KCYu5-Q-133" value="" style="rounded=0;whiteSpace=wrap;html=1;fillColor=none;strokeWidth=2;" vertex="1" parent="1">
          <mxGeometry x="280" y="280" width="10" height="40" as="geometry" />
        </mxCell>
        <mxCell id="9XVw_O79pxeB6KCYu5-Q-134" value="" style="rounded=0;whiteSpace=wrap;html=1;fillColor=none;strokeWidth=2;" vertex="1" parent="1">
          <mxGeometry x="300" y="280" width="10" height="40" as="geometry" />
        </mxCell>
        <mxCell id="9XVw_O79pxeB6KCYu5-Q-135" value="" style="rounded=0;whiteSpace=wrap;html=1;fillColor=none;strokeWidth=2;" vertex="1" parent="1">
          <mxGeometry x="320" y="280" width="10" height="40" as="geometry" />
        </mxCell>
        <mxCell id="9XVw_O79pxeB6KCYu5-Q-147" value="plaque" style="text;html=1;align=center;verticalAlign=middle;resizable=0;points=[];autosize=1;strokeColor=none;fillColor=none;fontSize=16;" vertex="1" parent="1">
          <mxGeometry x="295" y="360" width="60" height="20" as="geometry" />
        </mxCell>
        <mxCell id="9XVw_O79pxeB6KCYu5-Q-148" value="" style="endArrow=classic;html=1;rounded=0;fontSize=16;strokeColor=#000000;strokeWidth=2;entryX=0.5;entryY=0;entryDx=0;entryDy=0;entryPerimeter=0;" edge="1" parent="1">
          <mxGeometry width="50" height="50" relative="1" as="geometry">
            <mxPoint x="324.57" y="330" as="sourcePoint" />
            <mxPoint x="325" y="360" as="targetPoint" />
          </mxGeometry>
        </mxCell>
        <mxCell id="9XVw_O79pxeB6KCYu5-Q-16" value="" style="shape=trapezoid;perimeter=trapezoidPerimeter;whiteSpace=wrap;html=1;fixedSize=1;fillColor=#fff2cc;rotation=-180;size=10;strokeWidth=2;strokeColor=#d6b656;" vertex="1" parent="1">
          <mxGeometry x="80" y="110" width="70" height="30" as="geometry" />
        </mxCell>
        <mxCell id="9XVw_O79pxeB6KCYu5-Q-17" value="&lt;font style=&quot;font-size: 9px&quot;&gt;3D-CNN&lt;/font&gt;" style="text;html=1;align=center;verticalAlign=middle;resizable=0;points=[];autosize=1;strokeColor=none;fillColor=none;" vertex="1" parent="1">
          <mxGeometry x="90" y="115" width="50" height="20" as="geometry" />
        </mxCell>
        <mxCell id="9XVw_O79pxeB6KCYu5-Q-35" value="" style="shape=trapezoid;perimeter=trapezoidPerimeter;whiteSpace=wrap;html=1;fixedSize=1;fillColor=#fff2cc;rotation=-180;size=10;strokeWidth=2;strokeColor=#d6b656;" vertex="1" parent="1">
          <mxGeometry x="270" y="110" width="70" height="30" as="geometry" />
        </mxCell>
        <mxCell id="9XVw_O79pxeB6KCYu5-Q-36" value="&lt;font style=&quot;font-size: 9px&quot;&gt;3D-CNN&lt;/font&gt;" style="text;html=1;align=center;verticalAlign=middle;resizable=0;points=[];autosize=1;strokeColor=none;fillColor=none;" vertex="1" parent="1">
          <mxGeometry x="280.125" y="115" width="50" height="20" as="geometry" />
        </mxCell>
        <mxCell id="9XVw_O79pxeB6KCYu5-Q-158" value="" style="shape=trapezoid;perimeter=trapezoidPerimeter;whiteSpace=wrap;html=1;fixedSize=1;fillColor=#fff2cc;rotation=-180;size=10;strokeWidth=2;strokeColor=#d6b656;" vertex="1" parent="1">
          <mxGeometry x="80" y="490" width="70" height="30" as="geometry" />
        </mxCell>
        <mxCell id="9XVw_O79pxeB6KCYu5-Q-159" value="&lt;font style=&quot;font-size: 9px&quot;&gt;3D-CNN&lt;/font&gt;" style="text;html=1;align=center;verticalAlign=middle;resizable=0;points=[];autosize=1;strokeColor=none;fillColor=none;" vertex="1" parent="1">
          <mxGeometry x="90" y="495" width="50" height="20" as="geometry" />
        </mxCell>
        <mxCell id="9XVw_O79pxeB6KCYu5-Q-163" value="" style="shape=trapezoid;perimeter=trapezoidPerimeter;whiteSpace=wrap;html=1;fixedSize=1;fillColor=#fff2cc;rotation=-180;size=10;strokeWidth=2;strokeColor=#d6b656;" vertex="1" parent="1">
          <mxGeometry x="270" y="490" width="70" height="30" as="geometry" />
        </mxCell>
        <mxCell id="9XVw_O79pxeB6KCYu5-Q-164" value="&lt;font style=&quot;font-size: 9px&quot;&gt;3D-CNN&lt;/font&gt;" style="text;html=1;align=center;verticalAlign=middle;resizable=0;points=[];autosize=1;strokeColor=none;fillColor=none;" vertex="1" parent="1">
          <mxGeometry x="280.125" y="495" width="50" height="20" as="geometry" />
        </mxCell>
        <mxCell id="9XVw_O79pxeB6KCYu5-Q-231" value="" style="shape=trapezoid;perimeter=trapezoidPerimeter;whiteSpace=wrap;html=1;fixedSize=1;fillColor=#fff2cc;rotation=-180;size=10;strokeWidth=2;strokeColor=#d6b656;" vertex="1" parent="1">
          <mxGeometry x="80" y="890" width="70" height="30" as="geometry" />
        </mxCell>
        <mxCell id="9XVw_O79pxeB6KCYu5-Q-232" value="&lt;font style=&quot;font-size: 9px&quot;&gt;3D-CNN&lt;/font&gt;" style="text;html=1;align=center;verticalAlign=middle;resizable=0;points=[];autosize=1;strokeColor=none;fillColor=none;" vertex="1" parent="1">
          <mxGeometry x="90" y="895" width="50" height="20" as="geometry" />
        </mxCell>
        <mxCell id="9XVw_O79pxeB6KCYu5-Q-236" value="" style="shape=trapezoid;perimeter=trapezoidPerimeter;whiteSpace=wrap;html=1;fixedSize=1;fillColor=#fff2cc;rotation=-180;size=10;strokeWidth=2;strokeColor=#d6b656;" vertex="1" parent="1">
          <mxGeometry x="270" y="890" width="70" height="30" as="geometry" />
        </mxCell>
        <mxCell id="9XVw_O79pxeB6KCYu5-Q-237" value="&lt;font style=&quot;font-size: 9px&quot;&gt;3D-CNN&lt;/font&gt;" style="text;html=1;align=center;verticalAlign=middle;resizable=0;points=[];autosize=1;strokeColor=none;fillColor=none;" vertex="1" parent="1">
          <mxGeometry x="280.125" y="895" width="50" height="20" as="geometry" />
        </mxCell>
        <mxCell id="9XVw_O79pxeB6KCYu5-Q-307" value="" style="shape=trapezoid;perimeter=trapezoidPerimeter;whiteSpace=wrap;html=1;fixedSize=1;fillColor=#fff2cc;rotation=-180;size=10;strokeWidth=2;strokeColor=#d6b656;" vertex="1" parent="1">
          <mxGeometry x="940" y="890" width="70" height="30" as="geometry" />
        </mxCell>
        <mxCell id="9XVw_O79pxeB6KCYu5-Q-308" value="&lt;font style=&quot;font-size: 9px&quot;&gt;2D-CNN&lt;/font&gt;" style="text;html=1;align=center;verticalAlign=middle;resizable=0;points=[];autosize=1;strokeColor=none;fillColor=none;" vertex="1" parent="1">
          <mxGeometry x="950" y="895" width="50" height="20" as="geometry" />
        </mxCell>
        <mxCell id="9XVw_O79pxeB6KCYu5-Q-310" value="" style="shape=trapezoid;perimeter=trapezoidPerimeter;whiteSpace=wrap;html=1;fixedSize=1;fillColor=#fff2cc;rotation=-180;size=10;strokeWidth=2;strokeColor=#d6b656;" vertex="1" parent="1">
          <mxGeometry x="1130" y="890" width="70" height="30" as="geometry" />
        </mxCell>
        <mxCell id="9XVw_O79pxeB6KCYu5-Q-311" value="&lt;font style=&quot;font-size: 9px&quot;&gt;2D-CNN&lt;/font&gt;" style="text;html=1;align=center;verticalAlign=middle;resizable=0;points=[];autosize=1;strokeColor=none;fillColor=none;" vertex="1" parent="1">
          <mxGeometry x="1140.125" y="895" width="50" height="20" as="geometry" />
        </mxCell>
        <mxCell id="9XVw_O79pxeB6KCYu5-Q-372" value="" style="shape=cube;whiteSpace=wrap;html=1;boundedLbl=1;backgroundOutline=1;darkOpacity=0.05;darkOpacity2=0.1;fillColor=none;strokeWidth=2;" vertex="1" parent="1">
          <mxGeometry x="900" y="50" width="320" height="80" as="geometry" />
        </mxCell>
        <mxCell id="9XVw_O79pxeB6KCYu5-Q-374" value="" style="rounded=0;whiteSpace=wrap;html=1;fillColor=none;strokeWidth=2;" vertex="1" parent="1">
          <mxGeometry x="950" y="180" width="240" height="40" as="geometry" />
        </mxCell>
        <mxCell id="9XVw_O79pxeB6KCYu5-Q-375" style="edgeStyle=orthogonalEdgeStyle;rounded=0;orthogonalLoop=1;jettySize=auto;html=1;exitX=0;exitY=0.5;exitDx=0;exitDy=0;entryX=1;entryY=0.5;entryDx=0;entryDy=0;fontSize=9;endArrow=none;endFill=0;strokeWidth=2;" edge="1" parent="1" source="9XVw_O79pxeB6KCYu5-Q-390" target="9XVw_O79pxeB6KCYu5-Q-392">
          <mxGeometry relative="1" as="geometry" />
        </mxCell>
        <mxCell id="9XVw_O79pxeB6KCYu5-Q-376" value="shared" style="edgeLabel;html=1;align=center;verticalAlign=middle;resizable=0;points=[];fontSize=9;" vertex="1" connectable="0" parent="9XVw_O79pxeB6KCYu5-Q-375">
          <mxGeometry x="-0.3031" y="2" relative="1" as="geometry">
            <mxPoint x="15" y="2" as="offset" />
          </mxGeometry>
        </mxCell>
        <mxCell id="9XVw_O79pxeB6KCYu5-Q-377" value="" style="strokeWidth=2;html=1;shape=mxgraph.flowchart.annotation_2;align=left;labelPosition=right;pointerEvents=1;fontSize=16;fillColor=none;rotation=-90;" vertex="1" parent="1">
          <mxGeometry x="1075" y="160" width="30" height="300" as="geometry" />
        </mxCell>
        <mxCell id="9XVw_O79pxeB6KCYu5-Q-378" value="plaque" style="text;html=1;align=center;verticalAlign=middle;resizable=0;points=[];autosize=1;strokeColor=none;fillColor=none;fontSize=16;" vertex="1" parent="1">
          <mxGeometry x="1165" y="520" width="60" height="20" as="geometry" />
        </mxCell>
        <mxCell id="9XVw_O79pxeB6KCYu5-Q-379" value="" style="endArrow=classic;html=1;rounded=0;fontSize=16;strokeColor=#000000;strokeWidth=2;entryX=0.5;entryY=0;entryDx=0;entryDy=0;entryPerimeter=0;" edge="1" parent="1">
          <mxGeometry width="50" height="50" relative="1" as="geometry">
            <mxPoint x="1194.5699999999993" y="490" as="sourcePoint" />
            <mxPoint x="1195" y="520" as="targetPoint" />
          </mxGeometry>
        </mxCell>
        <mxCell id="9XVw_O79pxeB6KCYu5-Q-380" value="+" style="text;html=1;align=center;verticalAlign=middle;resizable=0;points=[];autosize=1;strokeColor=none;fillColor=none;fontSize=16;" vertex="1" parent="1">
          <mxGeometry x="1190" y="190" width="30" height="20" as="geometry" />
        </mxCell>
        <mxCell id="9XVw_O79pxeB6KCYu5-Q-381" value="" style="rounded=0;whiteSpace=wrap;html=1;fillColor=#dae8fc;strokeWidth=2;strokeColor=#6c8ebf;" vertex="1" parent="1">
          <mxGeometry x="1190" y="440" width="10" height="40" as="geometry" />
        </mxCell>
        <mxCell id="9XVw_O79pxeB6KCYu5-Q-382" value="" style="rounded=0;whiteSpace=wrap;html=1;fillColor=none;strokeWidth=2;" vertex="1" parent="1">
          <mxGeometry x="950" y="440" width="240" height="40" as="geometry" />
        </mxCell>
        <mxCell id="9XVw_O79pxeB6KCYu5-Q-383" value="" style="rounded=0;whiteSpace=wrap;html=1;fillColor=#dae8fc;strokeWidth=2;strokeColor=#6c8ebf;" vertex="1" parent="1">
          <mxGeometry x="1220" y="180" width="10" height="40" as="geometry" />
        </mxCell>
        <mxCell id="9XVw_O79pxeB6KCYu5-Q-384" value="MPR volume" style="text;html=1;align=center;verticalAlign=middle;resizable=0;points=[];autosize=1;strokeColor=none;fillColor=none;fontSize=16;rotation=-90;" vertex="1" parent="1">
          <mxGeometry x="1284" y="80" width="110" height="20" as="geometry" />
        </mxCell>
        <mxCell id="9XVw_O79pxeB6KCYu5-Q-385" value="embedding&lt;br&gt;&amp;nbsp;+ token" style="text;html=1;align=center;verticalAlign=middle;resizable=0;points=[];autosize=1;strokeColor=none;fillColor=none;fontSize=16;rotation=-90;" vertex="1" parent="1">
          <mxGeometry x="1289" y="210" width="90" height="40" as="geometry" />
        </mxCell>
        <mxCell id="9XVw_O79pxeB6KCYu5-Q-386" value="sequence" style="text;html=1;align=center;verticalAlign=middle;resizable=0;points=[];autosize=1;strokeColor=none;fillColor=none;fontSize=16;rotation=-90;" vertex="1" parent="1">
          <mxGeometry x="1279" y="430" width="90" height="20" as="geometry" />
        </mxCell>
        <mxCell id="9XVw_O79pxeB6KCYu5-Q-387" value="" style="strokeWidth=2;html=1;shape=mxgraph.flowchart.annotation_2;align=left;labelPosition=right;pointerEvents=1;fontSize=16;fillColor=none;rotation=-180;" vertex="1" parent="1">
          <mxGeometry x="1269" y="50" width="30" height="80" as="geometry" />
        </mxCell>
        <mxCell id="9XVw_O79pxeB6KCYu5-Q-388" value="" style="strokeWidth=2;html=1;shape=mxgraph.flowchart.annotation_2;align=left;labelPosition=right;pointerEvents=1;fontSize=16;fillColor=none;rotation=-180;" vertex="1" parent="1">
          <mxGeometry x="1269" y="180" width="30" height="100" as="geometry" />
        </mxCell>
        <mxCell id="9XVw_O79pxeB6KCYu5-Q-389" value="" style="strokeWidth=2;html=1;shape=mxgraph.flowchart.annotation_2;align=left;labelPosition=right;pointerEvents=1;fontSize=16;fillColor=none;rotation=-180;" vertex="1" parent="1">
          <mxGeometry x="1269" y="410" width="30" height="70" as="geometry" />
        </mxCell>
        <mxCell id="9XVw_O79pxeB6KCYu5-Q-390" value="" style="shape=trapezoid;perimeter=trapezoidPerimeter;whiteSpace=wrap;html=1;fixedSize=1;fillColor=#fff2cc;rotation=-180;size=10;strokeWidth=2;strokeColor=#d6b656;" vertex="1" parent="1">
          <mxGeometry x="940" y="140" width="70" height="30" as="geometry" />
        </mxCell>
        <mxCell id="9XVw_O79pxeB6KCYu5-Q-391" value="&lt;font style=&quot;font-size: 9px&quot;&gt;3D-CNN&lt;/font&gt;" style="text;html=1;align=center;verticalAlign=middle;resizable=0;points=[];autosize=1;strokeColor=none;fillColor=none;" vertex="1" parent="1">
          <mxGeometry x="950" y="145" width="50" height="20" as="geometry" />
        </mxCell>
        <mxCell id="9XVw_O79pxeB6KCYu5-Q-392" value="" style="shape=trapezoid;perimeter=trapezoidPerimeter;whiteSpace=wrap;html=1;fixedSize=1;fillColor=#fff2cc;rotation=-180;size=10;strokeWidth=2;strokeColor=#d6b656;" vertex="1" parent="1">
          <mxGeometry x="1130" y="140" width="70" height="30" as="geometry" />
        </mxCell>
        <mxCell id="9XVw_O79pxeB6KCYu5-Q-393" value="&lt;font style=&quot;font-size: 9px&quot;&gt;3D-CNN&lt;/font&gt;" style="text;html=1;align=center;verticalAlign=middle;resizable=0;points=[];autosize=1;strokeColor=none;fillColor=none;" vertex="1" parent="1">
          <mxGeometry x="1140.125" y="145" width="50" height="20" as="geometry" />
        </mxCell>
        <mxCell id="9XVw_O79pxeB6KCYu5-Q-394" value="MHSA" style="shape=internalStorage;whiteSpace=wrap;html=1;backgroundOutline=1;fontSize=10;strokeColor=#d6b656;strokeWidth=2;fillColor=#fff2cc;" vertex="1" parent="1">
          <mxGeometry x="1050" y="340" width="80" height="80" as="geometry" />
        </mxCell>
        <mxCell id="9XVw_O79pxeB6KCYu5-Q-427" value="" style="group" vertex="1" connectable="0" parent="1">
          <mxGeometry x="950" y="235" width="250" height="70" as="geometry" />
        </mxCell>
        <mxCell id="9XVw_O79pxeB6KCYu5-Q-417" value="" style="rounded=0;whiteSpace=wrap;html=1;fillColor=none;strokeWidth=2;" vertex="1" parent="9XVw_O79pxeB6KCYu5-Q-427">
          <mxGeometry y="15" width="250" height="40" as="geometry" />
        </mxCell>
        <mxCell id="9XVw_O79pxeB6KCYu5-Q-420" value="" style="curved=1;endArrow=none;html=1;rounded=0;fontSize=10;strokeWidth=1;endFill=0;fillColor=#f5f5f5;strokeColor=#666666;" edge="1" parent="9XVw_O79pxeB6KCYu5-Q-427">
          <mxGeometry width="50" height="50" relative="1" as="geometry">
            <mxPoint x="73.5" y="20" as="sourcePoint" />
            <mxPoint x="136.5" y="48" as="targetPoint" />
            <Array as="points">
              <mxPoint x="87.5" y="70" />
              <mxPoint x="122.5" />
            </Array>
          </mxGeometry>
        </mxCell>
        <mxCell id="9XVw_O79pxeB6KCYu5-Q-425" value="" style="curved=1;endArrow=none;html=1;rounded=0;fontSize=10;strokeWidth=1;endFill=0;fillColor=#f5f5f5;strokeColor=#666666;" edge="1" parent="9XVw_O79pxeB6KCYu5-Q-427">
          <mxGeometry width="50" height="50" relative="1" as="geometry">
            <mxPoint x="73.5" y="20" as="sourcePoint" />
            <mxPoint x="167.5" y="48" as="targetPoint" />
            <Array as="points">
              <mxPoint x="93.5" y="70" />
              <mxPoint x="143.5" />
            </Array>
          </mxGeometry>
        </mxCell>
        <mxCell id="9XVw_O79pxeB6KCYu5-Q-428" value="+" style="text;html=1;align=center;verticalAlign=middle;resizable=0;points=[];autosize=1;strokeColor=none;fillColor=none;fontSize=16;" vertex="1" parent="1">
          <mxGeometry x="1070" y="225" width="30" height="20" as="geometry" />
        </mxCell>
      </root>
    </mxGraphModel>
  </diagram>
</mxfile>
